<?xml version="1.0" encoding="UTF-8"?><svg id="Layer_1" xmlns="http://www.w3.org/2000/svg" viewBox="0 0 2592 1728"><defs><style>.cls-1{fill:#d02328;}.cls-2{fill:#2928b3;}</style></defs><path class="cls-2" d="M1103.79,779.2c-4.68,5.84-3.11,11.15-3.12,16.07-.1,110.54,.08,221.08-.17,331.62-.11,48.03-37.23,78.79-84.77,71.01-25.62-4.19-50.94-30.48-53.91-56.32-.82-7.16-.99-14.42-1-21.64-.05-192.17-.06-384.33,.01-576.5,0-11-1.02-22.15,2.57-32.88,9.79-29.23,30.93-46.45,60.73-49.2,28.65-2.64,52.34,9.18,66.5,35.86,51.55,97.13,103.11,194.26,154.6,291.43,35.78,67.52,71.4,135.12,107.26,202.59,2.01,3.78,2.35,10.36,8.43,9.8,4.68-.43,5.24-6.2,7.14-9.7,82.81-152.65,165.46-305.38,248.13-458.1,6.27-11.58,12.46-23.2,18.83-34.72,15.23-27.5,45.86-42.68,73.55-36.56,33.93,7.5,56.51,33.13,58.7,66.66,.19,2.97,.2,5.95,.2,8.92,.01,125.42,.08,250.84-.03,376.26-.03,37.74-23.35,68.01-56.97,74.68-42.72,8.48-82.47-23.25-83.27-67.48-.73-40.8-.19-81.63-.21-122.44,0-7.5,0-14.99,0-22.86-7.31,.81-8.37,5.76-10.42,9.71-64.29,123.97-128.51,247.98-192.88,371.92-20.67,39.8-64.86,53.48-101.42,31.75-12.56-7.47-20.75-18.74-27.15-31.44-60.17-119.43-120.28-238.89-180.44-358.32-3.22-6.39-6.82-12.59-10.91-20.1Z"/><path class="cls-2" d="M95.53,828.97c0-97.34,.09-194.68-.04-292.02-.05-33.83,15.2-57.38,46.22-70.93,9.66-4.22,19.95-4.47,30.11-4.44,75.83,.26,151.82-3.35,227.47,1.68,100.67,6.68,190.24,40.7,257.92,119.37,35.02,40.72,56.51,88.61,68.95,140.5,9.35,38.99,13.85,78.86,12.41,118.79-3.03,83.88-26.91,161.34-78.86,228.49-14.47,18.71-30.11,36.96-51.14,49.28-30.71,18-67.22,12.58-90.48-13.49-21.58-24.18-21.26-59.51,1.37-87.58,10.39-12.9,22.39-24.53,32.49-37.64,26.34-34.2,40.66-73.53,45.07-116.05,5.61-54.02,.44-107.07-22.14-157.15-25.32-56.17-72.02-86.39-129.49-102.22-28.92-7.97-58.77-9.69-88.64-9.9-35.36-.25-70.74,.4-106.09-.34-11.02-.23-14.31,2.23-14.28,13.83,.42,170.87,.33,341.75,.25,512.63-.02,38.96-21.34,67.45-55.82,75.31-38.49,8.77-76.37-16.92-83.7-57.07-1.29-7.05-1.52-14.37-1.52-21.57-.1-96.49-.06-192.98-.06-289.47Z"/><path class="cls-2" d="M2282.73,442.23c79.86,2.14,147.41,24.5,204.84,74.35,10.68,9.27,20.36,19.47,28.6,30.78,15.45,21.2,15.98,44.23,5.29,67.55-10.65,23.23-29.42,36.71-54.7,38.04-18.66,.98-34.08-9.32-47.89-21.27-22.94-19.84-46.77-38.58-76.52-47-46.47-13.15-93.19-18.18-137.82,6.1-26.1,14.2-45.19,34.39-46.51,66.65-.73,17.89,5.54,32.38,18.75,44.02,22.31,19.65,48.66,32.34,75.65,44.2,55.22,24.25,113.17,42.09,166.54,70.65,45.08,24.13,86.44,52.59,114.51,96.85,18.39,28.99,25.86,61.02,25.3,94.64-1.18,70.76-28.59,129.26-88.43,168.88-50.49,33.43-107.23,45.46-167.86,40.29-28.78-2.46-56.29-7.55-81.45-22.58-36.44-21.76-43.09-73.48-12.1-101.55,17.37-15.73,38.82-17.94,61.22-14.3,18.53,3.02,37.13,4.87,55.95,4.36,24.35-.66,46.22-8.55,64.26-24.47,35.15-31.01,44.83-87.77-14.65-122.81-44.27-26.08-92.26-43.02-140.47-59.82-50.62-17.64-100.84-36.33-144.1-69.44-34.94-26.75-60.52-59.8-69.15-103.58-15.01-76.12,6.05-142,63.07-194.03,56.8-51.83,127.3-67.02,197.68-66.52Z"/><path class="cls-1" d="M306.58,1128.41c-.28-37.76,30.51-68.77,68.7-69.17,39.8-.42,70.98,30.32,71.75,70.72,.69,36.59-32.6,69.33-70.67,69.5-38.7,.17-69.48-31.17-69.78-71.05Z"/><path class="cls-1" d="M1697.5,1059.25c38.94,.44,69.87,32.13,69.74,71.48-.12,37.11-33.16,68.91-71.4,68.74-38.93-.18-69.63-32.62-69.15-73.08,.44-37.31,32.36-67.57,70.82-67.14Z"/><path class="cls-1" d="M2074.14,1120.38c-39.31,.11-69.38-30.51-69.63-70.9-.23-37.36,31.16-68.29,69.49-68.47,38.91-.19,70.49,31.13,70.94,70.33,.42,37.01-32.32,68.93-70.81,69.04Z"/></svg>